{
	"asset":{
		"generator":"Khronos glTF Blender I/O v4.0.44",
		"version":"2.0"
	},
	"scene":0,
	"scenes":[
		{
			"name":"Scene",
			"nodes":[
				0
			]
		}
	],
	"nodes":[
		{
			"mesh":0,
			"name":"Axe_Gold"
		}
	],
	"materials":[
		{
			"doubleSided":true,
			"name":"Atlas",
			"pbrMetallicRoughness":{
				"baseColorTexture":{
					"index":0
				},
				"metallicFactor":0,
				"roughnessFactor":0.5
			}
		}
	],
	"meshes":[
		{
			"name":"Cube.031",
			"primitives":[
				{
					"attributes":{
						"POSITION":0,
						"NORMAL":1,
						"TEXCOORD_0":2
					},
					"indices":3,
					"material":0
				}
			]
		}
	],
	"textures":[
		{
			"sampler":0,
			"source":0
		}
	],
	"images":[
		{
			"mimeType":"image/png",
			"name":"Atlas.png",
			"uri":"../../Assets/Cube%20World%20-%20Aug%202023/Tools/Blends/textures/Atlas.png"
		}
	],
	"accessors":[
		{
			"bufferView":0,
			"componentType":5126,
			"count":306,
			"max":[
				0.15623515844345093,
				1.3979531526565552,
				0.16213883459568024
			],
			"min":[
				-0.5814504623413086,
				-0.31566691398620605,
				-0.16213883459568024
			],
			"type":"VEC3"
		},
		{
			"bufferView":1,
			"componentType":5126,
			"count":306,
			"type":"VEC3"
		},
		{
			"bufferView":2,
			"componentType":5126,
			"count":306,
			"type":"VEC2"
		},
		{
			"bufferView":3,
			"componentType":5123,
			"count":708,
			"type":"SCALAR"
		}
	],
	"bufferViews":[
		{
			"buffer":0,
			"byteLength":3672,
			"byteOffset":0,
			"target":34962
		},
		{
			"buffer":0,
			"byteLength":3672,
			"byteOffset":3672,
			"target":34962
		},
		{
			"buffer":0,
			"byteLength":2448,
			"byteOffset":7344,
			"target":34962
		},
		{
			"buffer":0,
			"byteLength":1416,
			"byteOffset":9792,
			"target":34963
		}
	],
	"samplers":[
		{
			"magFilter":9728,
			"minFilter":9984
		}
	],
	"buffers":[
		{
			"byteLength":11208,
			"uri":"Axe_Gold-ef3e2bd10a5a18b7a99967a8c657e15d.bin"
		}
	]
}
