{
	"asset":{
		"generator":"Khronos glTF Blender I/O v4.0.44",
		"version":"2.0"
	},
	"scene":0,
	"scenes":[
		{
			"name":"Scene",
			"nodes":[
				0
			]
		}
	],
	"nodes":[
		{
			"mesh":0,
			"name":"Block_Diamond",
			"scale":[
				1.1081618070602417,
				1.1081618070602417,
				1.1081618070602417
			]
		}
	],
	"materials":[
		{
			"doubleSided":true,
			"name":"Atlas",
			"pbrMetallicRoughness":{
				"baseColorTexture":{
					"index":0
				},
				"metallicFactor":0,
				"roughnessFactor":0.5
			}
		}
	],
	"meshes":[
		{
			"name":"Cube.425",
			"primitives":[
				{
					"attributes":{
						"POSITION":0,
						"NORMAL":1,
						"TEXCOORD_0":2,
						"TANGENT":3
					},
					"indices":4,
					"material":0
				}
			]
		}
	],
	"textures":[
		{
			"sampler":0,
			"source":0
		}
	],
	"images":[
		{
			"mimeType":"image/png",
			"name":"Atlas.png",
			"uri":"../../Assets/Cube%20World%20-%20Aug%202023/Blocks/Blends/textures/Atlas.png"
		}
	],
	"accessors":[
		{
			"bufferView":0,
			"componentType":5126,
			"count":3588,
			"max":[
				1.0204042196273804,
				1.02040433883667,
				1.02040433883667
			],
			"min":[
				-1.02040433883667,
				-1.02040433883667,
				-1.02040433883667
			],
			"type":"VEC3"
		},
		{
			"bufferView":1,
			"componentType":5126,
			"count":3588,
			"type":"VEC3"
		},
		{
			"bufferView":2,
			"componentType":5126,
			"count":3588,
			"type":"VEC2"
		},
		{
			"bufferView":3,
			"componentType":5126,
			"count":3588,
			"type":"VEC4"
		},
		{
			"bufferView":4,
			"componentType":5123,
			"count":7164,
			"type":"SCALAR"
		}
	],
	"bufferViews":[
		{
			"buffer":0,
			"byteLength":43056,
			"byteOffset":0,
			"target":34962
		},
		{
			"buffer":0,
			"byteLength":43056,
			"byteOffset":43056,
			"target":34962
		},
		{
			"buffer":0,
			"byteLength":28704,
			"byteOffset":86112,
			"target":34962
		},
		{
			"buffer":0,
			"byteLength":57408,
			"byteOffset":114816,
			"target":34962
		},
		{
			"buffer":0,
			"byteLength":14328,
			"byteOffset":172224,
			"target":34963
		}
	],
	"samplers":[
		{
			"magFilter":9728,
			"minFilter":9984
		}
	],
	"buffers":[
		{
			"byteLength":186552,
			"uri":"Block_Diamond-395f5571e0c7db442fd2cbc5613fcdcd.bin"
		}
	]
}
