{
	"asset":{
		"generator":"Khronos glTF Blender I/O v4.0.44",
		"version":"2.0"
	},
	"scene":0,
	"scenes":[
		{
			"name":"Scene",
			"nodes":[
				0
			]
		}
	],
	"nodes":[
		{
			"mesh":0,
			"name":"Block_Metal",
			"scale":[
				1.1081618070602417,
				1.1081618070602417,
				1.1081618070602417
			]
		}
	],
	"materials":[
		{
			"doubleSided":true,
			"name":"Atlas",
			"pbrMetallicRoughness":{
				"baseColorTexture":{
					"index":0
				},
				"metallicFactor":0,
				"roughnessFactor":0.5
			}
		}
	],
	"meshes":[
		{
			"name":"Cube.522",
			"primitives":[
				{
					"attributes":{
						"POSITION":0,
						"NORMAL":1,
						"TEXCOORD_0":2
					},
					"indices":3,
					"material":0
				}
			]
		}
	],
	"textures":[
		{
			"sampler":0,
			"source":0
		}
	],
	"images":[
		{
			"mimeType":"image/png",
			"name":"Atlas.png",
			"uri":"../../Assets/Cube%20World%20-%20Aug%202023/Blocks/Blends/textures/Atlas.png"
		}
	],
	"accessors":[
		{
			"bufferView":0,
			"componentType":5126,
			"count":1128,
			"max":[
				0.9443206191062927,
				0.9443203210830688,
				0.9443203210830688
			],
			"min":[
				-0.944320797920227,
				-0.944320797920227,
				-0.9443204998970032
			],
			"type":"VEC3"
		},
		{
			"bufferView":1,
			"componentType":5126,
			"count":1128,
			"type":"VEC3"
		},
		{
			"bufferView":2,
			"componentType":5126,
			"count":1128,
			"type":"VEC2"
		},
		{
			"bufferView":3,
			"componentType":5123,
			"count":1908,
			"type":"SCALAR"
		}
	],
	"bufferViews":[
		{
			"buffer":0,
			"byteLength":13536,
			"byteOffset":0,
			"target":34962
		},
		{
			"buffer":0,
			"byteLength":13536,
			"byteOffset":13536,
			"target":34962
		},
		{
			"buffer":0,
			"byteLength":9024,
			"byteOffset":27072,
			"target":34962
		},
		{
			"buffer":0,
			"byteLength":3816,
			"byteOffset":36096,
			"target":34963
		}
	],
	"samplers":[
		{
			"magFilter":9728,
			"minFilter":9984
		}
	],
	"buffers":[
		{
			"byteLength":39912,
			"uri":"Block_Metal-33d6df931449542ec73c4ea85455021c.bin"
		}
	]
}
