{
	"asset":{
		"generator":"Khronos glTF Blender I/O v4.0.44",
		"version":"2.0"
	},
	"scene":0,
	"scenes":[
		{
			"name":"Scene",
			"nodes":[
				0
			]
		}
	],
	"nodes":[
		{
			"mesh":0,
			"name":"Block_Coal",
			"scale":[
				1.1081618070602417,
				1.1081618070602417,
				1.1081618070602417
			]
		}
	],
	"materials":[
		{
			"doubleSided":true,
			"name":"Atlas",
			"pbrMetallicRoughness":{
				"baseColorTexture":{
					"index":0
				},
				"metallicFactor":0,
				"roughnessFactor":0.5
			}
		}
	],
	"meshes":[
		{
			"name":"Cube.424",
			"primitives":[
				{
					"attributes":{
						"POSITION":0,
						"NORMAL":1,
						"TEXCOORD_0":2,
						"TANGENT":3
					},
					"indices":4,
					"material":0
				}
			]
		}
	],
	"textures":[
		{
			"sampler":0,
			"source":0
		}
	],
	"images":[
		{
			"mimeType":"image/png",
			"name":"Atlas.png",
			"uri":"../../Assets/Cube%20World%20-%20Aug%202023/Blocks/Blends/textures/Atlas.png"
		}
	],
	"accessors":[
		{
			"bufferView":0,
			"componentType":5126,
			"count":1392,
			"max":[
				1.0126290321350098,
				1.0126285552978516,
				1.0126285552978516
			],
			"min":[
				-1.0126285552978516,
				-1.0126286745071411,
				-1.0126286745071411
			],
			"type":"VEC3"
		},
		{
			"bufferView":1,
			"componentType":5126,
			"count":1392,
			"type":"VEC3"
		},
		{
			"bufferView":2,
			"componentType":5126,
			"count":1392,
			"type":"VEC2"
		},
		{
			"bufferView":3,
			"componentType":5126,
			"count":1392,
			"type":"VEC4"
		},
		{
			"bufferView":4,
			"componentType":5123,
			"count":1872,
			"type":"SCALAR"
		}
	],
	"bufferViews":[
		{
			"buffer":0,
			"byteLength":16704,
			"byteOffset":0,
			"target":34962
		},
		{
			"buffer":0,
			"byteLength":16704,
			"byteOffset":16704,
			"target":34962
		},
		{
			"buffer":0,
			"byteLength":11136,
			"byteOffset":33408,
			"target":34962
		},
		{
			"buffer":0,
			"byteLength":22272,
			"byteOffset":44544,
			"target":34962
		},
		{
			"buffer":0,
			"byteLength":3744,
			"byteOffset":66816,
			"target":34963
		}
	],
	"samplers":[
		{
			"magFilter":9728,
			"minFilter":9984
		}
	],
	"buffers":[
		{
			"byteLength":70560,
			"uri":"Block_Coal-9fe252f710f8fd65b97ff6a77bcf82df.bin"
		}
	]
}
