{
	"asset":{
		"generator":"Khronos glTF Blender I/O v4.0.44",
		"version":"2.0"
	},
	"scene":0,
	"scenes":[
		{
			"name":"Scene",
			"nodes":[
				0
			]
		}
	],
	"nodes":[
		{
			"mesh":0,
			"name":"Bush"
		}
	],
	"materials":[
		{
			"doubleSided":true,
			"name":"Atlas",
			"pbrMetallicRoughness":{
				"baseColorTexture":{
					"index":0
				},
				"metallicFactor":0,
				"roughnessFactor":0.5
			}
		}
	],
	"meshes":[
		{
			"name":"Cube.595",
			"primitives":[
				{
					"attributes":{
						"POSITION":0,
						"NORMAL":1,
						"TEXCOORD_0":2,
						"TANGENT":3
					},
					"indices":4,
					"material":0
				}
			]
		}
	],
	"textures":[
		{
			"sampler":0,
			"source":0
		}
	],
	"images":[
		{
			"mimeType":"image/png",
			"name":"Atlas.png",
			"uri":"../../Assets/Cube%20World%20-%20Aug%202023/Environment/Blends/textures/Atlas.png"
		}
	],
	"accessors":[
		{
			"bufferView":0,
			"componentType":5126,
			"count":2004,
			"max":[
				1.5428285598754883,
				1.9195942878723145,
				1.542828917503357
			],
			"min":[
				-1.5428290367126465,
				-0.040470417588949203,
				-1.542828917503357
			],
			"type":"VEC3"
		},
		{
			"bufferView":1,
			"componentType":5126,
			"count":2004,
			"type":"VEC3"
		},
		{
			"bufferView":2,
			"componentType":5126,
			"count":2004,
			"type":"VEC2"
		},
		{
			"bufferView":3,
			"componentType":5126,
			"count":2004,
			"type":"VEC4"
		},
		{
			"bufferView":4,
			"componentType":5123,
			"count":5184,
			"type":"SCALAR"
		}
	],
	"bufferViews":[
		{
			"buffer":0,
			"byteLength":24048,
			"byteOffset":0,
			"target":34962
		},
		{
			"buffer":0,
			"byteLength":24048,
			"byteOffset":24048,
			"target":34962
		},
		{
			"buffer":0,
			"byteLength":16032,
			"byteOffset":48096,
			"target":34962
		},
		{
			"buffer":0,
			"byteLength":32064,
			"byteOffset":64128,
			"target":34962
		},
		{
			"buffer":0,
			"byteLength":10368,
			"byteOffset":96192,
			"target":34963
		}
	],
	"samplers":[
		{
			"magFilter":9728,
			"minFilter":9984
		}
	],
	"buffers":[
		{
			"byteLength":106560,
			"uri":"Bush-91c05585c86c68eb599b6625d041042b.bin"
		}
	]
}
