{
	"asset":{
		"generator":"Khronos glTF Blender I/O v4.0.44",
		"version":"2.0"
	},
	"scene":0,
	"scenes":[
		{
			"name":"Scene",
			"nodes":[
				0
			]
		}
	],
	"nodes":[
		{
			"mesh":0,
			"name":"Chest_Open",
			"scale":[
				0.8983598351478577,
				0.8983598351478577,
				0.8983598351478577
			]
		}
	],
	"materials":[
		{
			"doubleSided":true,
			"name":"Atlas.001",
			"pbrMetallicRoughness":{
				"baseColorTexture":{
					"index":0
				},
				"metallicFactor":0,
				"roughnessFactor":0.5
			}
		}
	],
	"meshes":[
		{
			"name":"Cube.035",
			"primitives":[
				{
					"attributes":{
						"POSITION":0,
						"NORMAL":1,
						"TEXCOORD_0":2
					},
					"indices":3,
					"material":0
				}
			]
		}
	],
	"textures":[
		{
			"sampler":0,
			"source":0
		}
	],
	"images":[
		{
			"mimeType":"image/png",
			"name":"Atlas.png.001",
			"uri":"../../Assets/Cube%20World%20-%20Aug%202023/Environment/Blends/textures/Atlas.png"
		}
	],
	"accessors":[
		{
			"bufferView":0,
			"componentType":5126,
			"count":3457,
			"max":[
				1.0219471454620361,
				3.1164536476135254,
				1.0694856643676758
			],
			"min":[
				-1.0219471454620361,
				-0.0034209489822387695,
				-1.7212085723876953
			],
			"type":"VEC3"
		},
		{
			"bufferView":1,
			"componentType":5126,
			"count":3457,
			"type":"VEC3"
		},
		{
			"bufferView":2,
			"componentType":5126,
			"count":3457,
			"type":"VEC2"
		},
		{
			"bufferView":3,
			"componentType":5123,
			"count":8742,
			"type":"SCALAR"
		}
	],
	"bufferViews":[
		{
			"buffer":0,
			"byteLength":41484,
			"byteOffset":0,
			"target":34962
		},
		{
			"buffer":0,
			"byteLength":41484,
			"byteOffset":41484,
			"target":34962
		},
		{
			"buffer":0,
			"byteLength":27656,
			"byteOffset":82968,
			"target":34962
		},
		{
			"buffer":0,
			"byteLength":17484,
			"byteOffset":110624,
			"target":34963
		}
	],
	"samplers":[
		{
			"magFilter":9728,
			"minFilter":9984
		}
	],
	"buffers":[
		{
			"byteLength":128108,
			"uri":"Chest_Open-ea05205ef5fdf2669611fbd1efa290a7.bin"
		}
	]
}
