{
	"asset":{
		"generator":"Khronos glTF Blender I/O v4.0.44",
		"version":"2.0"
	},
	"scene":0,
	"scenes":[
		{
			"name":"Scene",
			"nodes":[
				0
			]
		}
	],
	"nodes":[
		{
			"mesh":0,
			"name":"Chest_Closed"
		}
	],
	"materials":[
		{
			"doubleSided":true,
			"name":"Atlas",
			"pbrMetallicRoughness":{
				"baseColorTexture":{
					"index":0
				},
				"metallicFactor":0,
				"roughnessFactor":0.5
			}
		}
	],
	"meshes":[
		{
			"name":"Cube.090",
			"primitives":[
				{
					"attributes":{
						"POSITION":0,
						"NORMAL":1,
						"TEXCOORD_0":2
					},
					"indices":3,
					"material":0
				}
			]
		}
	],
	"textures":[
		{
			"sampler":0,
			"source":0
		}
	],
	"images":[
		{
			"mimeType":"image/png",
			"name":"Atlas.png",
			"uri":"../../Assets/Cube%20World%20-%20Aug%202023/Environment/Blends/textures/Atlas.png"
		}
	],
	"accessors":[
		{
			"bufferView":0,
			"componentType":5126,
			"count":3445,
			"max":[
				0.9180762767791748,
				1.9022433757781982,
				1.0305715799331665
			],
			"min":[
				-0.9180762767791748,
				-0.0030732154846191406,
				-0.960783064365387
			],
			"type":"VEC3"
		},
		{
			"bufferView":1,
			"componentType":5126,
			"count":3445,
			"type":"VEC3"
		},
		{
			"bufferView":2,
			"componentType":5126,
			"count":3445,
			"type":"VEC2"
		},
		{
			"bufferView":3,
			"componentType":5123,
			"count":8742,
			"type":"SCALAR"
		}
	],
	"bufferViews":[
		{
			"buffer":0,
			"byteLength":41340,
			"byteOffset":0,
			"target":34962
		},
		{
			"buffer":0,
			"byteLength":41340,
			"byteOffset":41340,
			"target":34962
		},
		{
			"buffer":0,
			"byteLength":27560,
			"byteOffset":82680,
			"target":34962
		},
		{
			"buffer":0,
			"byteLength":17484,
			"byteOffset":110240,
			"target":34963
		}
	],
	"samplers":[
		{
			"magFilter":9728,
			"minFilter":9984
		}
	],
	"buffers":[
		{
			"byteLength":127724,
			"uri":"Chest_Closed-dbf72be5050cf587386b81a91de6f57f.bin"
		}
	]
}
