{
	"asset":{
		"generator":"Khronos glTF Blender I/O v4.0.44",
		"version":"2.0"
	},
	"scene":0,
	"scenes":[
		{
			"name":"Scene",
			"nodes":[
				5
			]
		}
	],
	"nodes":[
		{
			"name":"Leg.R",
			"rotation":[
				0.7071067690849304,
				0,
				-0.7071067690849304,
				0
			],
			"scale":[
				1,
				0.9999999403953552,
				1
			],
			"translation":[
				-0.10575364530086517,
				0.301039457321167,
				-0.031097417697310448
			]
		},
		{
			"name":"Leg.L",
			"rotation":[
				0.7071067690849304,
				0,
				0.7071067690849304,
				0
			],
			"scale":[
				1,
				0.9999999403953552,
				1
			],
			"translation":[
				0.10575364530086517,
				0.301039457321167,
				-0.031097417697310448
			]
		},
		{
			"children":[
				0,
				1
			],
			"name":"Root"
		},
		{
			"name":"Body",
			"translation":[
				0,
				0.2528725266456604,
				0
			]
		},
		{
			"mesh":0,
			"name":"Chicken",
			"skin":0
		},
		{
			"children":[
				4,
				2,
				3
			],
			"name":"AnimalArmature"
		}
	],
	"animations":[
		{
			"channels":[
				{
					"sampler":0,
					"target":{
						"node":2,
						"path":"translation"
					}
				},
				{
					"sampler":1,
					"target":{
						"node":2,
						"path":"rotation"
					}
				},
				{
					"sampler":2,
					"target":{
						"node":2,
						"path":"scale"
					}
				},
				{
					"sampler":3,
					"target":{
						"node":0,
						"path":"translation"
					}
				},
				{
					"sampler":4,
					"target":{
						"node":0,
						"path":"rotation"
					}
				},
				{
					"sampler":5,
					"target":{
						"node":0,
						"path":"scale"
					}
				},
				{
					"sampler":6,
					"target":{
						"node":1,
						"path":"translation"
					}
				},
				{
					"sampler":7,
					"target":{
						"node":1,
						"path":"rotation"
					}
				},
				{
					"sampler":8,
					"target":{
						"node":1,
						"path":"scale"
					}
				},
				{
					"sampler":9,
					"target":{
						"node":3,
						"path":"translation"
					}
				},
				{
					"sampler":10,
					"target":{
						"node":3,
						"path":"rotation"
					}
				},
				{
					"sampler":11,
					"target":{
						"node":3,
						"path":"scale"
					}
				}
			],
			"name":"Attack",
			"samplers":[
				{
					"input":8,
					"interpolation":"STEP",
					"output":9
				},
				{
					"input":8,
					"interpolation":"STEP",
					"output":10
				},
				{
					"input":8,
					"interpolation":"STEP",
					"output":11
				},
				{
					"input":8,
					"interpolation":"STEP",
					"output":12
				},
				{
					"input":8,
					"interpolation":"STEP",
					"output":13
				},
				{
					"input":8,
					"interpolation":"STEP",
					"output":14
				},
				{
					"input":15,
					"interpolation":"LINEAR",
					"output":16
				},
				{
					"input":15,
					"interpolation":"LINEAR",
					"output":17
				},
				{
					"input":8,
					"interpolation":"STEP",
					"output":18
				},
				{
					"input":15,
					"interpolation":"LINEAR",
					"output":19
				},
				{
					"input":15,
					"interpolation":"LINEAR",
					"output":20
				},
				{
					"input":15,
					"interpolation":"LINEAR",
					"output":21
				}
			]
		},
		{
			"channels":[
				{
					"sampler":0,
					"target":{
						"node":2,
						"path":"translation"
					}
				},
				{
					"sampler":1,
					"target":{
						"node":2,
						"path":"rotation"
					}
				},
				{
					"sampler":2,
					"target":{
						"node":2,
						"path":"scale"
					}
				},
				{
					"sampler":3,
					"target":{
						"node":0,
						"path":"translation"
					}
				},
				{
					"sampler":4,
					"target":{
						"node":0,
						"path":"rotation"
					}
				},
				{
					"sampler":5,
					"target":{
						"node":0,
						"path":"scale"
					}
				},
				{
					"sampler":6,
					"target":{
						"node":1,
						"path":"translation"
					}
				},
				{
					"sampler":7,
					"target":{
						"node":1,
						"path":"rotation"
					}
				},
				{
					"sampler":8,
					"target":{
						"node":1,
						"path":"scale"
					}
				},
				{
					"sampler":9,
					"target":{
						"node":3,
						"path":"translation"
					}
				},
				{
					"sampler":10,
					"target":{
						"node":3,
						"path":"rotation"
					}
				},
				{
					"sampler":11,
					"target":{
						"node":3,
						"path":"scale"
					}
				}
			],
			"name":"Death",
			"samplers":[
				{
					"input":22,
					"interpolation":"STEP",
					"output":23
				},
				{
					"input":22,
					"interpolation":"STEP",
					"output":24
				},
				{
					"input":22,
					"interpolation":"STEP",
					"output":25
				},
				{
					"input":26,
					"interpolation":"LINEAR",
					"output":27
				},
				{
					"input":26,
					"interpolation":"LINEAR",
					"output":28
				},
				{
					"input":22,
					"interpolation":"STEP",
					"output":29
				},
				{
					"input":26,
					"interpolation":"LINEAR",
					"output":30
				},
				{
					"input":26,
					"interpolation":"LINEAR",
					"output":31
				},
				{
					"input":22,
					"interpolation":"STEP",
					"output":32
				},
				{
					"input":26,
					"interpolation":"LINEAR",
					"output":33
				},
				{
					"input":26,
					"interpolation":"LINEAR",
					"output":34
				},
				{
					"input":22,
					"interpolation":"LINEAR",
					"output":35
				}
			]
		},
		{
			"channels":[
				{
					"sampler":0,
					"target":{
						"node":2,
						"path":"translation"
					}
				},
				{
					"sampler":1,
					"target":{
						"node":2,
						"path":"rotation"
					}
				},
				{
					"sampler":2,
					"target":{
						"node":2,
						"path":"scale"
					}
				},
				{
					"sampler":3,
					"target":{
						"node":0,
						"path":"translation"
					}
				},
				{
					"sampler":4,
					"target":{
						"node":0,
						"path":"rotation"
					}
				},
				{
					"sampler":5,
					"target":{
						"node":0,
						"path":"scale"
					}
				},
				{
					"sampler":6,
					"target":{
						"node":1,
						"path":"translation"
					}
				},
				{
					"sampler":7,
					"target":{
						"node":1,
						"path":"rotation"
					}
				},
				{
					"sampler":8,
					"target":{
						"node":1,
						"path":"scale"
					}
				},
				{
					"sampler":9,
					"target":{
						"node":3,
						"path":"translation"
					}
				},
				{
					"sampler":10,
					"target":{
						"node":3,
						"path":"rotation"
					}
				},
				{
					"sampler":11,
					"target":{
						"node":3,
						"path":"scale"
					}
				}
			],
			"name":"Idle",
			"samplers":[
				{
					"input":36,
					"interpolation":"STEP",
					"output":37
				},
				{
					"input":36,
					"interpolation":"STEP",
					"output":38
				},
				{
					"input":36,
					"interpolation":"STEP",
					"output":39
				},
				{
					"input":36,
					"interpolation":"STEP",
					"output":40
				},
				{
					"input":36,
					"interpolation":"STEP",
					"output":41
				},
				{
					"input":36,
					"interpolation":"STEP",
					"output":42
				},
				{
					"input":36,
					"interpolation":"STEP",
					"output":43
				},
				{
					"input":36,
					"interpolation":"STEP",
					"output":44
				},
				{
					"input":36,
					"interpolation":"STEP",
					"output":45
				},
				{
					"input":46,
					"interpolation":"LINEAR",
					"output":47
				},
				{
					"input":46,
					"interpolation":"LINEAR",
					"output":48
				},
				{
					"input":36,
					"interpolation":"STEP",
					"output":49
				}
			]
		},
		{
			"channels":[
				{
					"sampler":0,
					"target":{
						"node":2,
						"path":"translation"
					}
				},
				{
					"sampler":1,
					"target":{
						"node":2,
						"path":"rotation"
					}
				},
				{
					"sampler":2,
					"target":{
						"node":2,
						"path":"scale"
					}
				},
				{
					"sampler":3,
					"target":{
						"node":0,
						"path":"translation"
					}
				},
				{
					"sampler":4,
					"target":{
						"node":0,
						"path":"rotation"
					}
				},
				{
					"sampler":5,
					"target":{
						"node":0,
						"path":"scale"
					}
				},
				{
					"sampler":6,
					"target":{
						"node":1,
						"path":"translation"
					}
				},
				{
					"sampler":7,
					"target":{
						"node":1,
						"path":"rotation"
					}
				},
				{
					"sampler":8,
					"target":{
						"node":1,
						"path":"scale"
					}
				},
				{
					"sampler":9,
					"target":{
						"node":3,
						"path":"translation"
					}
				},
				{
					"sampler":10,
					"target":{
						"node":3,
						"path":"rotation"
					}
				},
				{
					"sampler":11,
					"target":{
						"node":3,
						"path":"scale"
					}
				}
			],
			"name":"Idle_Peck",
			"samplers":[
				{
					"input":36,
					"interpolation":"STEP",
					"output":50
				},
				{
					"input":36,
					"interpolation":"STEP",
					"output":51
				},
				{
					"input":36,
					"interpolation":"STEP",
					"output":52
				},
				{
					"input":36,
					"interpolation":"STEP",
					"output":53
				},
				{
					"input":36,
					"interpolation":"STEP",
					"output":54
				},
				{
					"input":36,
					"interpolation":"STEP",
					"output":55
				},
				{
					"input":36,
					"interpolation":"STEP",
					"output":56
				},
				{
					"input":36,
					"interpolation":"STEP",
					"output":57
				},
				{
					"input":36,
					"interpolation":"STEP",
					"output":58
				},
				{
					"input":46,
					"interpolation":"LINEAR",
					"output":59
				},
				{
					"input":46,
					"interpolation":"LINEAR",
					"output":60
				},
				{
					"input":36,
					"interpolation":"STEP",
					"output":61
				}
			]
		},
		{
			"channels":[
				{
					"sampler":0,
					"target":{
						"node":2,
						"path":"translation"
					}
				},
				{
					"sampler":1,
					"target":{
						"node":2,
						"path":"rotation"
					}
				},
				{
					"sampler":2,
					"target":{
						"node":2,
						"path":"scale"
					}
				},
				{
					"sampler":3,
					"target":{
						"node":0,
						"path":"translation"
					}
				},
				{
					"sampler":4,
					"target":{
						"node":0,
						"path":"rotation"
					}
				},
				{
					"sampler":5,
					"target":{
						"node":0,
						"path":"scale"
					}
				},
				{
					"sampler":6,
					"target":{
						"node":1,
						"path":"translation"
					}
				},
				{
					"sampler":7,
					"target":{
						"node":1,
						"path":"rotation"
					}
				},
				{
					"sampler":8,
					"target":{
						"node":1,
						"path":"scale"
					}
				},
				{
					"sampler":9,
					"target":{
						"node":3,
						"path":"translation"
					}
				},
				{
					"sampler":10,
					"target":{
						"node":3,
						"path":"rotation"
					}
				},
				{
					"sampler":11,
					"target":{
						"node":3,
						"path":"scale"
					}
				}
			],
			"name":"Run",
			"samplers":[
				{
					"input":36,
					"interpolation":"STEP",
					"output":62
				},
				{
					"input":36,
					"interpolation":"STEP",
					"output":63
				},
				{
					"input":36,
					"interpolation":"STEP",
					"output":64
				},
				{
					"input":46,
					"interpolation":"LINEAR",
					"output":65
				},
				{
					"input":46,
					"interpolation":"LINEAR",
					"output":66
				},
				{
					"input":36,
					"interpolation":"STEP",
					"output":67
				},
				{
					"input":46,
					"interpolation":"LINEAR",
					"output":68
				},
				{
					"input":46,
					"interpolation":"LINEAR",
					"output":69
				},
				{
					"input":36,
					"interpolation":"LINEAR",
					"output":70
				},
				{
					"input":46,
					"interpolation":"LINEAR",
					"output":71
				},
				{
					"input":46,
					"interpolation":"LINEAR",
					"output":72
				},
				{
					"input":36,
					"interpolation":"STEP",
					"output":73
				}
			]
		}
	],
	"materials":[
		{
			"doubleSided":true,
			"name":"Atlas",
			"pbrMetallicRoughness":{}
		}
	],
	"meshes":[
		{
			"name":"Cube.054",
			"primitives":[
				{
					"attributes":{
						"POSITION":0,
						"NORMAL":1,
						"TEXCOORD_0":2,
						"TANGENT":3,
						"JOINTS_0":4,
						"WEIGHTS_0":5
					},
					"indices":6,
					"material":0
				}
			]
		}
	],
	"skins":[
		{
			"inverseBindMatrices":7,
			"joints":[
				2,
				0,
				1,
				3
			],
			"name":"AnimalArmature"
		}
	],
	"accessors":[
		{
			"bufferView":0,
			"componentType":5126,
			"count":1684,
			"max":[
				0.3062812089920044,
				1.044872522354126,
				0.48686638474464417
			],
			"min":[
				-0.3062812089920044,
				0.002410739194601774,
				-0.33575740456581116
			],
			"type":"VEC3"
		},
		{
			"bufferView":1,
			"componentType":5126,
			"count":1684,
			"type":"VEC3"
		},
		{
			"bufferView":2,
			"componentType":5126,
			"count":1684,
			"type":"VEC2"
		},
		{
			"bufferView":3,
			"componentType":5126,
			"count":1684,
			"type":"VEC4"
		},
		{
			"bufferView":4,
			"componentType":5121,
			"count":1684,
			"type":"VEC4"
		},
		{
			"bufferView":5,
			"componentType":5126,
			"count":1684,
			"type":"VEC4"
		},
		{
			"bufferView":6,
			"componentType":5123,
			"count":5832,
			"type":"SCALAR"
		},
		{
			"bufferView":7,
			"componentType":5126,
			"count":4,
			"type":"MAT4"
		},
		{
			"bufferView":8,
			"componentType":5126,
			"count":2,
			"max":[
				0.36666666666666664
			],
			"min":[
				0.03333333333333333
			],
			"type":"SCALAR"
		},
		{
			"bufferView":9,
			"componentType":5126,
			"count":2,
			"type":"VEC3"
		},
		{
			"bufferView":10,
			"componentType":5126,
			"count":2,
			"type":"VEC4"
		},
		{
			"bufferView":11,
			"componentType":5126,
			"count":2,
			"type":"VEC3"
		},
		{
			"bufferView":12,
			"componentType":5126,
			"count":2,
			"type":"VEC3"
		},
		{
			"bufferView":13,
			"componentType":5126,
			"count":2,
			"type":"VEC4"
		},
		{
			"bufferView":14,
			"componentType":5126,
			"count":2,
			"type":"VEC3"
		},
		{
			"bufferView":15,
			"componentType":5126,
			"count":11,
			"max":[
				0.36666666666666664
			],
			"min":[
				0.03333333333333333
			],
			"type":"SCALAR"
		},
		{
			"bufferView":16,
			"componentType":5126,
			"count":11,
			"type":"VEC3"
		},
		{
			"bufferView":17,
			"componentType":5126,
			"count":11,
			"type":"VEC4"
		},
		{
			"bufferView":18,
			"componentType":5126,
			"count":2,
			"type":"VEC3"
		},
		{
			"bufferView":19,
			"componentType":5126,
			"count":11,
			"type":"VEC3"
		},
		{
			"bufferView":20,
			"componentType":5126,
			"count":11,
			"type":"VEC4"
		},
		{
			"bufferView":21,
			"componentType":5126,
			"count":11,
			"type":"VEC3"
		},
		{
			"bufferView":22,
			"componentType":5126,
			"count":2,
			"max":[
				0.3
			],
			"min":[
				0.03333333333333333
			],
			"type":"SCALAR"
		},
		{
			"bufferView":23,
			"componentType":5126,
			"count":2,
			"type":"VEC3"
		},
		{
			"bufferView":24,
			"componentType":5126,
			"count":2,
			"type":"VEC4"
		},
		{
			"bufferView":25,
			"componentType":5126,
			"count":2,
			"type":"VEC3"
		},
		{
			"bufferView":26,
			"componentType":5126,
			"count":9,
			"max":[
				0.3
			],
			"min":[
				0.03333333333333333
			],
			"type":"SCALAR"
		},
		{
			"bufferView":27,
			"componentType":5126,
			"count":9,
			"type":"VEC3"
		},
		{
			"bufferView":28,
			"componentType":5126,
			"count":9,
			"type":"VEC4"
		},
		{
			"bufferView":29,
			"componentType":5126,
			"count":2,
			"type":"VEC3"
		},
		{
			"bufferView":30,
			"componentType":5126,
			"count":9,
			"type":"VEC3"
		},
		{
			"bufferView":31,
			"componentType":5126,
			"count":9,
			"type":"VEC4"
		},
		{
			"bufferView":32,
			"componentType":5126,
			"count":2,
			"type":"VEC3"
		},
		{
			"bufferView":33,
			"componentType":5126,
			"count":9,
			"type":"VEC3"
		},
		{
			"bufferView":34,
			"componentType":5126,
			"count":9,
			"type":"VEC4"
		},
		{
			"bufferView":35,
			"componentType":5126,
			"count":2,
			"type":"VEC3"
		},
		{
			"bufferView":36,
			"componentType":5126,
			"count":2,
			"max":[
				0.4
			],
			"min":[
				0.03333333333333333
			],
			"type":"SCALAR"
		},
		{
			"bufferView":37,
			"componentType":5126,
			"count":2,
			"type":"VEC3"
		},
		{
			"bufferView":38,
			"componentType":5126,
			"count":2,
			"type":"VEC4"
		},
		{
			"bufferView":39,
			"componentType":5126,
			"count":2,
			"type":"VEC3"
		},
		{
			"bufferView":40,
			"componentType":5126,
			"count":2,
			"type":"VEC3"
		},
		{
			"bufferView":41,
			"componentType":5126,
			"count":2,
			"type":"VEC4"
		},
		{
			"bufferView":42,
			"componentType":5126,
			"count":2,
			"type":"VEC3"
		},
		{
			"bufferView":43,
			"componentType":5126,
			"count":2,
			"type":"VEC3"
		},
		{
			"bufferView":44,
			"componentType":5126,
			"count":2,
			"type":"VEC4"
		},
		{
			"bufferView":45,
			"componentType":5126,
			"count":2,
			"type":"VEC3"
		},
		{
			"bufferView":46,
			"componentType":5126,
			"count":12,
			"max":[
				0.4
			],
			"min":[
				0.03333333333333333
			],
			"type":"SCALAR"
		},
		{
			"bufferView":47,
			"componentType":5126,
			"count":12,
			"type":"VEC3"
		},
		{
			"bufferView":48,
			"componentType":5126,
			"count":12,
			"type":"VEC4"
		},
		{
			"bufferView":49,
			"componentType":5126,
			"count":2,
			"type":"VEC3"
		},
		{
			"bufferView":50,
			"componentType":5126,
			"count":2,
			"type":"VEC3"
		},
		{
			"bufferView":51,
			"componentType":5126,
			"count":2,
			"type":"VEC4"
		},
		{
			"bufferView":52,
			"componentType":5126,
			"count":2,
			"type":"VEC3"
		},
		{
			"bufferView":53,
			"componentType":5126,
			"count":2,
			"type":"VEC3"
		},
		{
			"bufferView":54,
			"componentType":5126,
			"count":2,
			"type":"VEC4"
		},
		{
			"bufferView":55,
			"componentType":5126,
			"count":2,
			"type":"VEC3"
		},
		{
			"bufferView":56,
			"componentType":5126,
			"count":2,
			"type":"VEC3"
		},
		{
			"bufferView":57,
			"componentType":5126,
			"count":2,
			"type":"VEC4"
		},
		{
			"bufferView":58,
			"componentType":5126,
			"count":2,
			"type":"VEC3"
		},
		{
			"bufferView":59,
			"componentType":5126,
			"count":12,
			"type":"VEC3"
		},
		{
			"bufferView":60,
			"componentType":5126,
			"count":12,
			"type":"VEC4"
		},
		{
			"bufferView":61,
			"componentType":5126,
			"count":2,
			"type":"VEC3"
		},
		{
			"bufferView":62,
			"componentType":5126,
			"count":2,
			"type":"VEC3"
		},
		{
			"bufferView":63,
			"componentType":5126,
			"count":2,
			"type":"VEC4"
		},
		{
			"bufferView":64,
			"componentType":5126,
			"count":2,
			"type":"VEC3"
		},
		{
			"bufferView":65,
			"componentType":5126,
			"count":12,
			"type":"VEC3"
		},
		{
			"bufferView":66,
			"componentType":5126,
			"count":12,
			"type":"VEC4"
		},
		{
			"bufferView":67,
			"componentType":5126,
			"count":2,
			"type":"VEC3"
		},
		{
			"bufferView":68,
			"componentType":5126,
			"count":12,
			"type":"VEC3"
		},
		{
			"bufferView":69,
			"componentType":5126,
			"count":12,
			"type":"VEC4"
		},
		{
			"bufferView":70,
			"componentType":5126,
			"count":2,
			"type":"VEC3"
		},
		{
			"bufferView":71,
			"componentType":5126,
			"count":12,
			"type":"VEC3"
		},
		{
			"bufferView":72,
			"componentType":5126,
			"count":12,
			"type":"VEC4"
		},
		{
			"bufferView":73,
			"componentType":5126,
			"count":2,
			"type":"VEC3"
		}
	],
	"bufferViews":[
		{
			"buffer":0,
			"byteLength":20208,
			"byteOffset":0,
			"target":34962
		},
		{
			"buffer":0,
			"byteLength":20208,
			"byteOffset":20208,
			"target":34962
		},
		{
			"buffer":0,
			"byteLength":13472,
			"byteOffset":40416,
			"target":34962
		},
		{
			"buffer":0,
			"byteLength":26944,
			"byteOffset":53888,
			"target":34962
		},
		{
			"buffer":0,
			"byteLength":6736,
			"byteOffset":80832,
			"target":34962
		},
		{
			"buffer":0,
			"byteLength":26944,
			"byteOffset":87568,
			"target":34962
		},
		{
			"buffer":0,
			"byteLength":11664,
			"byteOffset":114512,
			"target":34963
		},
		{
			"buffer":0,
			"byteLength":256,
			"byteOffset":126176
		},
		{
			"buffer":0,
			"byteLength":8,
			"byteOffset":126432
		},
		{
			"buffer":0,
			"byteLength":24,
			"byteOffset":126440
		},
		{
			"buffer":0,
			"byteLength":32,
			"byteOffset":126464
		},
		{
			"buffer":0,
			"byteLength":24,
			"byteOffset":126496
		},
		{
			"buffer":0,
			"byteLength":24,
			"byteOffset":126520
		},
		{
			"buffer":0,
			"byteLength":32,
			"byteOffset":126544
		},
		{
			"buffer":0,
			"byteLength":24,
			"byteOffset":126576
		},
		{
			"buffer":0,
			"byteLength":44,
			"byteOffset":126600
		},
		{
			"buffer":0,
			"byteLength":132,
			"byteOffset":126644
		},
		{
			"buffer":0,
			"byteLength":176,
			"byteOffset":126776
		},
		{
			"buffer":0,
			"byteLength":24,
			"byteOffset":126952
		},
		{
			"buffer":0,
			"byteLength":132,
			"byteOffset":126976
		},
		{
			"buffer":0,
			"byteLength":176,
			"byteOffset":127108
		},
		{
			"buffer":0,
			"byteLength":132,
			"byteOffset":127284
		},
		{
			"buffer":0,
			"byteLength":8,
			"byteOffset":127416
		},
		{
			"buffer":0,
			"byteLength":24,
			"byteOffset":127424
		},
		{
			"buffer":0,
			"byteLength":32,
			"byteOffset":127448
		},
		{
			"buffer":0,
			"byteLength":24,
			"byteOffset":127480
		},
		{
			"buffer":0,
			"byteLength":36,
			"byteOffset":127504
		},
		{
			"buffer":0,
			"byteLength":108,
			"byteOffset":127540
		},
		{
			"buffer":0,
			"byteLength":144,
			"byteOffset":127648
		},
		{
			"buffer":0,
			"byteLength":24,
			"byteOffset":127792
		},
		{
			"buffer":0,
			"byteLength":108,
			"byteOffset":127816
		},
		{
			"buffer":0,
			"byteLength":144,
			"byteOffset":127924
		},
		{
			"buffer":0,
			"byteLength":24,
			"byteOffset":128068
		},
		{
			"buffer":0,
			"byteLength":108,
			"byteOffset":128092
		},
		{
			"buffer":0,
			"byteLength":144,
			"byteOffset":128200
		},
		{
			"buffer":0,
			"byteLength":24,
			"byteOffset":128344
		},
		{
			"buffer":0,
			"byteLength":8,
			"byteOffset":128368
		},
		{
			"buffer":0,
			"byteLength":24,
			"byteOffset":128376
		},
		{
			"buffer":0,
			"byteLength":32,
			"byteOffset":128400
		},
		{
			"buffer":0,
			"byteLength":24,
			"byteOffset":128432
		},
		{
			"buffer":0,
			"byteLength":24,
			"byteOffset":128456
		},
		{
			"buffer":0,
			"byteLength":32,
			"byteOffset":128480
		},
		{
			"buffer":0,
			"byteLength":24,
			"byteOffset":128512
		},
		{
			"buffer":0,
			"byteLength":24,
			"byteOffset":128536
		},
		{
			"buffer":0,
			"byteLength":32,
			"byteOffset":128560
		},
		{
			"buffer":0,
			"byteLength":24,
			"byteOffset":128592
		},
		{
			"buffer":0,
			"byteLength":48,
			"byteOffset":128616
		},
		{
			"buffer":0,
			"byteLength":144,
			"byteOffset":128664
		},
		{
			"buffer":0,
			"byteLength":192,
			"byteOffset":128808
		},
		{
			"buffer":0,
			"byteLength":24,
			"byteOffset":129000
		},
		{
			"buffer":0,
			"byteLength":24,
			"byteOffset":129024
		},
		{
			"buffer":0,
			"byteLength":32,
			"byteOffset":129048
		},
		{
			"buffer":0,
			"byteLength":24,
			"byteOffset":129080
		},
		{
			"buffer":0,
			"byteLength":24,
			"byteOffset":129104
		},
		{
			"buffer":0,
			"byteLength":32,
			"byteOffset":129128
		},
		{
			"buffer":0,
			"byteLength":24,
			"byteOffset":129160
		},
		{
			"buffer":0,
			"byteLength":24,
			"byteOffset":129184
		},
		{
			"buffer":0,
			"byteLength":32,
			"byteOffset":129208
		},
		{
			"buffer":0,
			"byteLength":24,
			"byteOffset":129240
		},
		{
			"buffer":0,
			"byteLength":144,
			"byteOffset":129264
		},
		{
			"buffer":0,
			"byteLength":192,
			"byteOffset":129408
		},
		{
			"buffer":0,
			"byteLength":24,
			"byteOffset":129600
		},
		{
			"buffer":0,
			"byteLength":24,
			"byteOffset":129624
		},
		{
			"buffer":0,
			"byteLength":32,
			"byteOffset":129648
		},
		{
			"buffer":0,
			"byteLength":24,
			"byteOffset":129680
		},
		{
			"buffer":0,
			"byteLength":144,
			"byteOffset":129704
		},
		{
			"buffer":0,
			"byteLength":192,
			"byteOffset":129848
		},
		{
			"buffer":0,
			"byteLength":24,
			"byteOffset":130040
		},
		{
			"buffer":0,
			"byteLength":144,
			"byteOffset":130064
		},
		{
			"buffer":0,
			"byteLength":192,
			"byteOffset":130208
		},
		{
			"buffer":0,
			"byteLength":24,
			"byteOffset":130400
		},
		{
			"buffer":0,
			"byteLength":144,
			"byteOffset":130424
		},
		{
			"buffer":0,
			"byteLength":192,
			"byteOffset":130568
		},
		{
			"buffer":0,
			"byteLength":24,
			"byteOffset":130760
		}
	],
	"buffers":[
		{
			"byteLength":130784,
			"uri":"Chick-b0c8b6454361676f3cac736b0e97dfec.bin"
		}
	]
}
