{
	"asset":{
		"generator":"Khronos glTF Blender I/O v4.0.44",
		"version":"2.0"
	},
	"scene":0,
	"scenes":[
		{
			"name":"Scene",
			"nodes":[
				0
			]
		}
	],
	"nodes":[
		{
			"mesh":0,
			"name":"Crystal_Big",
			"scale":[
				0.26141291856765747,
				0.26141291856765747,
				0.26141291856765747
			]
		}
	],
	"materials":[
		{
			"doubleSided":true,
			"name":"Atlas",
			"pbrMetallicRoughness":{
				"baseColorTexture":{
					"index":0
				},
				"metallicFactor":0,
				"roughnessFactor":0.5
			}
		}
	],
	"meshes":[
		{
			"name":"Cube.111",
			"primitives":[
				{
					"attributes":{
						"POSITION":0,
						"NORMAL":1,
						"TEXCOORD_0":2,
						"TANGENT":3
					},
					"indices":4,
					"material":0
				}
			]
		}
	],
	"textures":[
		{
			"sampler":0,
			"source":0
		}
	],
	"images":[
		{
			"mimeType":"image/png",
			"name":"Atlas.png",
			"uri":"../../Assets/Cube%20World%20-%20Aug%202023/Environment/Blends/textures/Atlas.png"
		}
	],
	"accessors":[
		{
			"bufferView":0,
			"componentType":5126,
			"count":899,
			"max":[
				2.661817789077759,
				6.321273326873779,
				2.7179737091064453
			],
			"min":[
				-2.9834959506988525,
				-0.00822468101978302,
				-2.950719118118286
			],
			"type":"VEC3"
		},
		{
			"bufferView":1,
			"componentType":5126,
			"count":899,
			"type":"VEC3"
		},
		{
			"bufferView":2,
			"componentType":5126,
			"count":899,
			"type":"VEC2"
		},
		{
			"bufferView":3,
			"componentType":5126,
			"count":899,
			"type":"VEC4"
		},
		{
			"bufferView":4,
			"componentType":5123,
			"count":1770,
			"type":"SCALAR"
		}
	],
	"bufferViews":[
		{
			"buffer":0,
			"byteLength":10788,
			"byteOffset":0,
			"target":34962
		},
		{
			"buffer":0,
			"byteLength":10788,
			"byteOffset":10788,
			"target":34962
		},
		{
			"buffer":0,
			"byteLength":7192,
			"byteOffset":21576,
			"target":34962
		},
		{
			"buffer":0,
			"byteLength":14384,
			"byteOffset":28768,
			"target":34962
		},
		{
			"buffer":0,
			"byteLength":3540,
			"byteOffset":43152,
			"target":34963
		}
	],
	"samplers":[
		{
			"magFilter":9728,
			"minFilter":9984
		}
	],
	"buffers":[
		{
			"byteLength":46692,
			"uri":"Crystal_Big-5690788f756fca7ea0b3c21d2a0a7ab5.bin"
		}
	]
}
