{
	"asset":{
		"generator":"Khronos glTF Blender I/O v4.0.44",
		"version":"2.0"
	},
	"scene":0,
	"scenes":[
		{
			"name":"Scene",
			"nodes":[
				0
			]
		}
	],
	"nodes":[
		{
			"mesh":0,
			"name":"DeadTree_3"
		}
	],
	"materials":[
		{
			"doubleSided":true,
			"name":"Atlas",
			"pbrMetallicRoughness":{
				"baseColorTexture":{
					"index":0
				},
				"metallicFactor":0,
				"roughnessFactor":0.5
			}
		}
	],
	"meshes":[
		{
			"name":"Cube.533",
			"primitives":[
				{
					"attributes":{
						"POSITION":0,
						"NORMAL":1,
						"TEXCOORD_0":2
					},
					"indices":3,
					"material":0
				}
			]
		}
	],
	"textures":[
		{
			"sampler":0,
			"source":0
		}
	],
	"images":[
		{
			"mimeType":"image/png",
			"name":"Atlas.png",
			"uri":"../../Assets/Cube%20World%20-%20Aug%202023/Environment/Blends/textures/Atlas.png"
		}
	],
	"accessors":[
		{
			"bufferView":0,
			"componentType":5126,
			"count":1137,
			"max":[
				3.2469558715820312,
				4.992175579071045,
				0.869418203830719
			],
			"min":[
				-2.4732141494750977,
				-0.0003096928121522069,
				-0.6794314384460449
			],
			"type":"VEC3"
		},
		{
			"bufferView":1,
			"componentType":5126,
			"count":1137,
			"type":"VEC3"
		},
		{
			"bufferView":2,
			"componentType":5126,
			"count":1137,
			"type":"VEC2"
		},
		{
			"bufferView":3,
			"componentType":5123,
			"count":2802,
			"type":"SCALAR"
		}
	],
	"bufferViews":[
		{
			"buffer":0,
			"byteLength":13644,
			"byteOffset":0,
			"target":34962
		},
		{
			"buffer":0,
			"byteLength":13644,
			"byteOffset":13644,
			"target":34962
		},
		{
			"buffer":0,
			"byteLength":9096,
			"byteOffset":27288,
			"target":34962
		},
		{
			"buffer":0,
			"byteLength":5604,
			"byteOffset":36384,
			"target":34963
		}
	],
	"samplers":[
		{
			"magFilter":9728,
			"minFilter":9984
		}
	],
	"buffers":[
		{
			"byteLength":41988,
			"uri":"DeadTree_3-0d611fff74b6f3f5d5a0efd3420c474e.bin"
		}
	]
}
