{
	"asset":{
		"generator":"Khronos glTF Blender I/O v4.0.44",
		"version":"2.0"
	},
	"scene":0,
	"scenes":[
		{
			"name":"Scene",
			"nodes":[
				0
			]
		}
	],
	"nodes":[
		{
			"mesh":0,
			"name":"DeadTree_1"
		}
	],
	"materials":[
		{
			"doubleSided":true,
			"name":"Atlas",
			"pbrMetallicRoughness":{
				"baseColorTexture":{
					"index":0
				},
				"metallicFactor":0,
				"roughnessFactor":0.5
			}
		}
	],
	"meshes":[
		{
			"name":"Cube.535",
			"primitives":[
				{
					"attributes":{
						"POSITION":0,
						"NORMAL":1,
						"TEXCOORD_0":2
					},
					"indices":3,
					"material":0
				}
			]
		}
	],
	"textures":[
		{
			"sampler":0,
			"source":0
		}
	],
	"images":[
		{
			"mimeType":"image/png",
			"name":"Atlas.png",
			"uri":"../../Assets/Cube%20World%20-%20Aug%202023/Environment/Blends/textures/Atlas.png"
		}
	],
	"accessors":[
		{
			"bufferView":0,
			"componentType":5126,
			"count":954,
			"max":[
				2.4067649841308594,
				4.990276336669922,
				0.6584709882736206
			],
			"min":[
				-1.817309021949768,
				-3.725290298461914e-09,
				-0.6490312814712524
			],
			"type":"VEC3"
		},
		{
			"bufferView":1,
			"componentType":5126,
			"count":954,
			"type":"VEC3"
		},
		{
			"bufferView":2,
			"componentType":5126,
			"count":954,
			"type":"VEC2"
		},
		{
			"bufferView":3,
			"componentType":5123,
			"count":2298,
			"type":"SCALAR"
		}
	],
	"bufferViews":[
		{
			"buffer":0,
			"byteLength":11448,
			"byteOffset":0,
			"target":34962
		},
		{
			"buffer":0,
			"byteLength":11448,
			"byteOffset":11448,
			"target":34962
		},
		{
			"buffer":0,
			"byteLength":7632,
			"byteOffset":22896,
			"target":34962
		},
		{
			"buffer":0,
			"byteLength":4596,
			"byteOffset":30528,
			"target":34963
		}
	],
	"samplers":[
		{
			"magFilter":9728,
			"minFilter":9984
		}
	],
	"buffers":[
		{
			"byteLength":35124,
			"uri":"DeadTree_1-92a5501bd103f4c6cbe162b04311e742.bin"
		}
	]
}
