{
	"asset":{
		"generator":"Khronos glTF Blender I/O v4.0.44",
		"version":"2.0"
	},
	"scene":0,
	"scenes":[
		{
			"name":"Scene",
			"nodes":[
				0
			]
		}
	],
	"nodes":[
		{
			"mesh":0,
			"name":"Door_Closed"
		}
	],
	"materials":[
		{
			"doubleSided":true,
			"name":"Material.007",
			"pbrMetallicRoughness":{}
		},
		{
			"doubleSided":true,
			"name":"Atlas",
			"pbrMetallicRoughness":{
				"baseColorTexture":{
					"index":0
				},
				"metallicFactor":0,
				"roughnessFactor":0.5
			}
		}
	],
	"meshes":[
		{
			"name":"Cube.466",
			"primitives":[
				{
					"attributes":{
						"POSITION":0,
						"NORMAL":1,
						"TEXCOORD_0":2,
						"TANGENT":3
					},
					"indices":4,
					"material":0
				},
				{
					"attributes":{
						"POSITION":5,
						"NORMAL":6,
						"TEXCOORD_0":7,
						"TANGENT":8
					},
					"indices":9,
					"material":1
				}
			]
		}
	],
	"textures":[
		{
			"sampler":0,
			"source":0
		}
	],
	"images":[
		{
			"mimeType":"image/png",
			"name":"Atlas.png",
			"uri":"../../Assets/Cube%20World%20-%20Aug%202023/Environment/Blends/textures/Atlas.png"
		}
	],
	"accessors":[
		{
			"bufferView":0,
			"componentType":5126,
			"count":84,
			"max":[
				1,
				4,
				1
			],
			"min":[
				-1,
				0,
				0.8104010820388794
			],
			"type":"VEC3"
		},
		{
			"bufferView":1,
			"componentType":5126,
			"count":84,
			"type":"VEC3"
		},
		{
			"bufferView":2,
			"componentType":5126,
			"count":84,
			"type":"VEC2"
		},
		{
			"bufferView":3,
			"componentType":5126,
			"count":84,
			"type":"VEC4"
		},
		{
			"bufferView":4,
			"componentType":5123,
			"count":162,
			"type":"SCALAR"
		},
		{
			"bufferView":5,
			"componentType":5126,
			"count":31,
			"max":[
				-0.6676410436630249,
				1.9490137100219727,
				1.1127324104309082
			],
			"min":[
				-0.8912860751152039,
				1.7097346782684326,
				0.9231335520744324
			],
			"type":"VEC3"
		},
		{
			"bufferView":6,
			"componentType":5126,
			"count":31,
			"type":"VEC3"
		},
		{
			"bufferView":7,
			"componentType":5126,
			"count":31,
			"type":"VEC2"
		},
		{
			"bufferView":8,
			"componentType":5126,
			"count":31,
			"type":"VEC4"
		},
		{
			"bufferView":9,
			"componentType":5123,
			"count":60,
			"type":"SCALAR"
		}
	],
	"bufferViews":[
		{
			"buffer":0,
			"byteLength":1008,
			"byteOffset":0,
			"target":34962
		},
		{
			"buffer":0,
			"byteLength":1008,
			"byteOffset":1008,
			"target":34962
		},
		{
			"buffer":0,
			"byteLength":672,
			"byteOffset":2016,
			"target":34962
		},
		{
			"buffer":0,
			"byteLength":1344,
			"byteOffset":2688,
			"target":34962
		},
		{
			"buffer":0,
			"byteLength":324,
			"byteOffset":4032,
			"target":34963
		},
		{
			"buffer":0,
			"byteLength":372,
			"byteOffset":4356,
			"target":34962
		},
		{
			"buffer":0,
			"byteLength":372,
			"byteOffset":4728,
			"target":34962
		},
		{
			"buffer":0,
			"byteLength":248,
			"byteOffset":5100,
			"target":34962
		},
		{
			"buffer":0,
			"byteLength":496,
			"byteOffset":5348,
			"target":34962
		},
		{
			"buffer":0,
			"byteLength":120,
			"byteOffset":5844,
			"target":34963
		}
	],
	"samplers":[
		{
			"magFilter":9728,
			"minFilter":9984
		}
	],
	"buffers":[
		{
			"byteLength":5964,
			"uri":"Door_Closed-e1df8aa9df6a55a7466360dd73010ddb.bin"
		}
	]
}
