{
	"asset":{
		"generator":"Khronos glTF Blender I/O v4.0.44",
		"version":"2.0"
	},
	"scene":0,
	"scenes":[
		{
			"name":"Scene",
			"nodes":[
				0
			]
		}
	],
	"nodes":[
		{
			"mesh":0,
			"name":"Flowers_2"
		}
	],
	"materials":[
		{
			"doubleSided":true,
			"name":"Atlas",
			"pbrMetallicRoughness":{
				"baseColorTexture":{
					"index":0
				},
				"metallicFactor":0,
				"roughnessFactor":0.5
			}
		}
	],
	"meshes":[
		{
			"name":"Cube.439",
			"primitives":[
				{
					"attributes":{
						"POSITION":0,
						"NORMAL":1,
						"TEXCOORD_0":2
					},
					"indices":3,
					"material":0
				}
			]
		}
	],
	"textures":[
		{
			"sampler":0,
			"source":0
		}
	],
	"images":[
		{
			"mimeType":"image/png",
			"name":"Atlas.png",
			"uri":"../../Assets/Cube%20World%20-%20Aug%202023/Environment/Blends/textures/Atlas.png"
		}
	],
	"accessors":[
		{
			"bufferView":0,
			"componentType":5126,
			"count":3635,
			"max":[
				0.8693784475326538,
				0.9677878618240356,
				0.7941814661026001
			],
			"min":[
				-0.9603366255760193,
				-4.7206878662109375e-05,
				-0.8594202995300293
			],
			"type":"VEC3"
		},
		{
			"bufferView":1,
			"componentType":5126,
			"count":3635,
			"type":"VEC3"
		},
		{
			"bufferView":2,
			"componentType":5126,
			"count":3635,
			"type":"VEC2"
		},
		{
			"bufferView":3,
			"componentType":5123,
			"count":6240,
			"type":"SCALAR"
		}
	],
	"bufferViews":[
		{
			"buffer":0,
			"byteLength":43620,
			"byteOffset":0,
			"target":34962
		},
		{
			"buffer":0,
			"byteLength":43620,
			"byteOffset":43620,
			"target":34962
		},
		{
			"buffer":0,
			"byteLength":29080,
			"byteOffset":87240,
			"target":34962
		},
		{
			"buffer":0,
			"byteLength":12480,
			"byteOffset":116320,
			"target":34963
		}
	],
	"samplers":[
		{
			"magFilter":9728,
			"minFilter":9984
		}
	],
	"buffers":[
		{
			"byteLength":128800,
			"uri":"Flowers_2-c1a7e83bedfd89543fbfc0bcde39c9ca.bin"
		}
	]
}
