{
	"asset":{
		"generator":"Khronos glTF Blender I/O v4.0.44",
		"version":"2.0"
	},
	"scene":0,
	"scenes":[
		{
			"name":"Scene",
			"nodes":[
				3
			]
		}
	],
	"nodes":[
		{
			"name":"Root"
		},
		{
			"name":"Body",
			"translation":[
				0,
				0.05196182429790497,
				0
			]
		},
		{
			"mesh":0,
			"name":"Hedgehog",
			"skin":0
		},
		{
			"children":[
				2,
				0,
				1
			],
			"name":"EnemyArmature"
		}
	],
	"animations":[
		{
			"channels":[
				{
					"sampler":0,
					"target":{
						"node":0,
						"path":"translation"
					}
				},
				{
					"sampler":1,
					"target":{
						"node":0,
						"path":"rotation"
					}
				},
				{
					"sampler":2,
					"target":{
						"node":0,
						"path":"scale"
					}
				},
				{
					"sampler":3,
					"target":{
						"node":1,
						"path":"translation"
					}
				},
				{
					"sampler":4,
					"target":{
						"node":1,
						"path":"rotation"
					}
				},
				{
					"sampler":5,
					"target":{
						"node":1,
						"path":"scale"
					}
				}
			],
			"name":"Attack",
			"samplers":[
				{
					"input":8,
					"interpolation":"STEP",
					"output":9
				},
				{
					"input":8,
					"interpolation":"STEP",
					"output":10
				},
				{
					"input":8,
					"interpolation":"STEP",
					"output":11
				},
				{
					"input":12,
					"interpolation":"LINEAR",
					"output":13
				},
				{
					"input":12,
					"interpolation":"LINEAR",
					"output":14
				},
				{
					"input":12,
					"interpolation":"LINEAR",
					"output":15
				}
			]
		},
		{
			"channels":[
				{
					"sampler":0,
					"target":{
						"node":0,
						"path":"translation"
					}
				},
				{
					"sampler":1,
					"target":{
						"node":0,
						"path":"rotation"
					}
				},
				{
					"sampler":2,
					"target":{
						"node":0,
						"path":"scale"
					}
				},
				{
					"sampler":3,
					"target":{
						"node":1,
						"path":"translation"
					}
				},
				{
					"sampler":4,
					"target":{
						"node":1,
						"path":"rotation"
					}
				},
				{
					"sampler":5,
					"target":{
						"node":1,
						"path":"scale"
					}
				}
			],
			"name":"Death",
			"samplers":[
				{
					"input":16,
					"interpolation":"STEP",
					"output":17
				},
				{
					"input":16,
					"interpolation":"STEP",
					"output":18
				},
				{
					"input":16,
					"interpolation":"STEP",
					"output":19
				},
				{
					"input":20,
					"interpolation":"LINEAR",
					"output":21
				},
				{
					"input":20,
					"interpolation":"LINEAR",
					"output":22
				},
				{
					"input":16,
					"interpolation":"LINEAR",
					"output":23
				}
			]
		},
		{
			"channels":[
				{
					"sampler":0,
					"target":{
						"node":0,
						"path":"translation"
					}
				},
				{
					"sampler":1,
					"target":{
						"node":0,
						"path":"rotation"
					}
				},
				{
					"sampler":2,
					"target":{
						"node":0,
						"path":"scale"
					}
				},
				{
					"sampler":3,
					"target":{
						"node":1,
						"path":"translation"
					}
				},
				{
					"sampler":4,
					"target":{
						"node":1,
						"path":"rotation"
					}
				},
				{
					"sampler":5,
					"target":{
						"node":1,
						"path":"scale"
					}
				}
			],
			"name":"Idle",
			"samplers":[
				{
					"input":8,
					"interpolation":"STEP",
					"output":24
				},
				{
					"input":8,
					"interpolation":"STEP",
					"output":25
				},
				{
					"input":8,
					"interpolation":"STEP",
					"output":26
				},
				{
					"input":12,
					"interpolation":"LINEAR",
					"output":27
				},
				{
					"input":12,
					"interpolation":"LINEAR",
					"output":28
				},
				{
					"input":12,
					"interpolation":"LINEAR",
					"output":29
				}
			]
		}
	],
	"materials":[
		{
			"doubleSided":true,
			"name":"Atlas",
			"pbrMetallicRoughness":{}
		}
	],
	"meshes":[
		{
			"name":"Cube.209",
			"primitives":[
				{
					"attributes":{
						"POSITION":0,
						"NORMAL":1,
						"TEXCOORD_0":2,
						"TANGENT":3,
						"JOINTS_0":4,
						"WEIGHTS_0":5
					},
					"indices":6,
					"material":0
				}
			]
		}
	],
	"skins":[
		{
			"inverseBindMatrices":7,
			"joints":[
				0,
				1
			],
			"name":"EnemyArmature"
		}
	],
	"accessors":[
		{
			"bufferView":0,
			"componentType":5126,
			"count":1584,
			"max":[
				0.5290464162826538,
				1.0318262577056885,
				0.6038219332695007
			],
			"min":[
				-0.5290464162826538,
				0.0084381103515625,
				-0.627439022064209
			],
			"type":"VEC3"
		},
		{
			"bufferView":1,
			"componentType":5126,
			"count":1584,
			"type":"VEC3"
		},
		{
			"bufferView":2,
			"componentType":5126,
			"count":1584,
			"type":"VEC2"
		},
		{
			"bufferView":3,
			"componentType":5126,
			"count":1584,
			"type":"VEC4"
		},
		{
			"bufferView":4,
			"componentType":5121,
			"count":1584,
			"type":"VEC4"
		},
		{
			"bufferView":5,
			"componentType":5126,
			"count":1584,
			"type":"VEC4"
		},
		{
			"bufferView":6,
			"componentType":5123,
			"count":4416,
			"type":"SCALAR"
		},
		{
			"bufferView":7,
			"componentType":5126,
			"count":2,
			"type":"MAT4"
		},
		{
			"bufferView":8,
			"componentType":5126,
			"count":2,
			"max":[
				0.3333333333333333
			],
			"min":[
				0.03333333333333333
			],
			"type":"SCALAR"
		},
		{
			"bufferView":9,
			"componentType":5126,
			"count":2,
			"type":"VEC3"
		},
		{
			"bufferView":10,
			"componentType":5126,
			"count":2,
			"type":"VEC4"
		},
		{
			"bufferView":11,
			"componentType":5126,
			"count":2,
			"type":"VEC3"
		},
		{
			"bufferView":12,
			"componentType":5126,
			"count":10,
			"max":[
				0.3333333333333333
			],
			"min":[
				0.03333333333333333
			],
			"type":"SCALAR"
		},
		{
			"bufferView":13,
			"componentType":5126,
			"count":10,
			"type":"VEC3"
		},
		{
			"bufferView":14,
			"componentType":5126,
			"count":10,
			"type":"VEC4"
		},
		{
			"bufferView":15,
			"componentType":5126,
			"count":10,
			"type":"VEC3"
		},
		{
			"bufferView":16,
			"componentType":5126,
			"count":2,
			"max":[
				0.23333333333333334
			],
			"min":[
				0.03333333333333333
			],
			"type":"SCALAR"
		},
		{
			"bufferView":17,
			"componentType":5126,
			"count":2,
			"type":"VEC3"
		},
		{
			"bufferView":18,
			"componentType":5126,
			"count":2,
			"type":"VEC4"
		},
		{
			"bufferView":19,
			"componentType":5126,
			"count":2,
			"type":"VEC3"
		},
		{
			"bufferView":20,
			"componentType":5126,
			"count":7,
			"max":[
				0.23333333333333334
			],
			"min":[
				0.03333333333333333
			],
			"type":"SCALAR"
		},
		{
			"bufferView":21,
			"componentType":5126,
			"count":7,
			"type":"VEC3"
		},
		{
			"bufferView":22,
			"componentType":5126,
			"count":7,
			"type":"VEC4"
		},
		{
			"bufferView":23,
			"componentType":5126,
			"count":2,
			"type":"VEC3"
		},
		{
			"bufferView":24,
			"componentType":5126,
			"count":2,
			"type":"VEC3"
		},
		{
			"bufferView":25,
			"componentType":5126,
			"count":2,
			"type":"VEC4"
		},
		{
			"bufferView":26,
			"componentType":5126,
			"count":2,
			"type":"VEC3"
		},
		{
			"bufferView":27,
			"componentType":5126,
			"count":10,
			"type":"VEC3"
		},
		{
			"bufferView":28,
			"componentType":5126,
			"count":10,
			"type":"VEC4"
		},
		{
			"bufferView":29,
			"componentType":5126,
			"count":10,
			"type":"VEC3"
		}
	],
	"bufferViews":[
		{
			"buffer":0,
			"byteLength":19008,
			"byteOffset":0,
			"target":34962
		},
		{
			"buffer":0,
			"byteLength":19008,
			"byteOffset":19008,
			"target":34962
		},
		{
			"buffer":0,
			"byteLength":12672,
			"byteOffset":38016,
			"target":34962
		},
		{
			"buffer":0,
			"byteLength":25344,
			"byteOffset":50688,
			"target":34962
		},
		{
			"buffer":0,
			"byteLength":6336,
			"byteOffset":76032,
			"target":34962
		},
		{
			"buffer":0,
			"byteLength":25344,
			"byteOffset":82368,
			"target":34962
		},
		{
			"buffer":0,
			"byteLength":8832,
			"byteOffset":107712,
			"target":34963
		},
		{
			"buffer":0,
			"byteLength":128,
			"byteOffset":116544
		},
		{
			"buffer":0,
			"byteLength":8,
			"byteOffset":116672
		},
		{
			"buffer":0,
			"byteLength":24,
			"byteOffset":116680
		},
		{
			"buffer":0,
			"byteLength":32,
			"byteOffset":116704
		},
		{
			"buffer":0,
			"byteLength":24,
			"byteOffset":116736
		},
		{
			"buffer":0,
			"byteLength":40,
			"byteOffset":116760
		},
		{
			"buffer":0,
			"byteLength":120,
			"byteOffset":116800
		},
		{
			"buffer":0,
			"byteLength":160,
			"byteOffset":116920
		},
		{
			"buffer":0,
			"byteLength":120,
			"byteOffset":117080
		},
		{
			"buffer":0,
			"byteLength":8,
			"byteOffset":117200
		},
		{
			"buffer":0,
			"byteLength":24,
			"byteOffset":117208
		},
		{
			"buffer":0,
			"byteLength":32,
			"byteOffset":117232
		},
		{
			"buffer":0,
			"byteLength":24,
			"byteOffset":117264
		},
		{
			"buffer":0,
			"byteLength":28,
			"byteOffset":117288
		},
		{
			"buffer":0,
			"byteLength":84,
			"byteOffset":117316
		},
		{
			"buffer":0,
			"byteLength":112,
			"byteOffset":117400
		},
		{
			"buffer":0,
			"byteLength":24,
			"byteOffset":117512
		},
		{
			"buffer":0,
			"byteLength":24,
			"byteOffset":117536
		},
		{
			"buffer":0,
			"byteLength":32,
			"byteOffset":117560
		},
		{
			"buffer":0,
			"byteLength":24,
			"byteOffset":117592
		},
		{
			"buffer":0,
			"byteLength":120,
			"byteOffset":117616
		},
		{
			"buffer":0,
			"byteLength":160,
			"byteOffset":117736
		},
		{
			"buffer":0,
			"byteLength":120,
			"byteOffset":117896
		}
	],
	"buffers":[
		{
			"byteLength":118016,
			"uri":"Hedgehog-ce188ce192acdf1d7015768d73b568d1.bin"
		}
	]
}
