{
	"asset":{
		"generator":"Khronos glTF Blender I/O v4.0.44",
		"version":"2.0"
	},
	"scene":0,
	"scenes":[
		{
			"name":"Scene",
			"nodes":[
				0
			]
		}
	],
	"nodes":[
		{
			"mesh":0,
			"name":"Plant_2"
		}
	],
	"materials":[
		{
			"doubleSided":true,
			"name":"Atlas",
			"pbrMetallicRoughness":{
				"baseColorTexture":{
					"index":0
				},
				"metallicFactor":0,
				"roughnessFactor":0.5
			}
		}
	],
	"meshes":[
		{
			"name":"Cube.518",
			"primitives":[
				{
					"attributes":{
						"POSITION":0,
						"NORMAL":1,
						"TEXCOORD_0":2,
						"TANGENT":3
					},
					"indices":4,
					"material":0
				}
			]
		}
	],
	"textures":[
		{
			"sampler":0,
			"source":0
		}
	],
	"images":[
		{
			"mimeType":"image/png",
			"name":"Atlas.png",
			"uri":"../../Assets/Cube%20World%20-%20Aug%202023/Environment/Blends/textures/Atlas.png"
		}
	],
	"accessors":[
		{
			"bufferView":0,
			"componentType":5126,
			"count":424,
			"max":[
				1.330190658569336,
				0.7338991165161133,
				1.330190658569336
			],
			"min":[
				-1.330190658569336,
				0.010357104241847992,
				-1.330190658569336
			],
			"type":"VEC3"
		},
		{
			"bufferView":1,
			"componentType":5126,
			"count":424,
			"type":"VEC3"
		},
		{
			"bufferView":2,
			"componentType":5126,
			"count":424,
			"type":"VEC2"
		},
		{
			"bufferView":3,
			"componentType":5126,
			"count":424,
			"type":"VEC4"
		},
		{
			"bufferView":4,
			"componentType":5123,
			"count":1296,
			"type":"SCALAR"
		}
	],
	"bufferViews":[
		{
			"buffer":0,
			"byteLength":5088,
			"byteOffset":0,
			"target":34962
		},
		{
			"buffer":0,
			"byteLength":5088,
			"byteOffset":5088,
			"target":34962
		},
		{
			"buffer":0,
			"byteLength":3392,
			"byteOffset":10176,
			"target":34962
		},
		{
			"buffer":0,
			"byteLength":6784,
			"byteOffset":13568,
			"target":34962
		},
		{
			"buffer":0,
			"byteLength":2592,
			"byteOffset":20352,
			"target":34963
		}
	],
	"samplers":[
		{
			"magFilter":9728,
			"minFilter":9984
		}
	],
	"buffers":[
		{
			"byteLength":22944,
			"uri":"Plant_2-52f926ef0eab4a9dad543e149e4c3b6b.bin"
		}
	]
}
