{
	"asset":{
		"generator":"Khronos glTF Blender I/O v4.0.44",
		"version":"2.0"
	},
	"scene":0,
	"scenes":[
		{
			"name":"Scene",
			"nodes":[
				0
			]
		}
	],
	"nodes":[
		{
			"mesh":0,
			"name":"Tree_2"
		}
	],
	"materials":[
		{
			"doubleSided":true,
			"name":"Atlas",
			"pbrMetallicRoughness":{
				"baseColorTexture":{
					"index":0
				},
				"metallicFactor":0,
				"roughnessFactor":0.5
			}
		}
	],
	"meshes":[
		{
			"name":"Cube.081",
			"primitives":[
				{
					"attributes":{
						"POSITION":0,
						"NORMAL":1,
						"TEXCOORD_0":2
					},
					"indices":3,
					"material":0
				}
			]
		}
	],
	"textures":[
		{
			"sampler":0,
			"source":0
		}
	],
	"images":[
		{
			"mimeType":"image/png",
			"name":"Atlas.png",
			"uri":"../../Assets/Cube%20World%20-%20Aug%202023/Environment/Blends/textures/Atlas.png"
		}
	],
	"accessors":[
		{
			"bufferView":0,
			"componentType":5126,
			"count":878,
			"max":[
				3.0644683837890625,
				6.652670860290527,
				1.8610893487930298
			],
			"min":[
				-2.2820918560028076,
				-0.00026996026281267405,
				-2.4625511169433594
			],
			"type":"VEC3"
		},
		{
			"bufferView":1,
			"componentType":5126,
			"count":878,
			"type":"VEC3"
		},
		{
			"bufferView":2,
			"componentType":5126,
			"count":878,
			"type":"VEC2"
		},
		{
			"bufferView":3,
			"componentType":5123,
			"count":2334,
			"type":"SCALAR"
		}
	],
	"bufferViews":[
		{
			"buffer":0,
			"byteLength":10536,
			"byteOffset":0,
			"target":34962
		},
		{
			"buffer":0,
			"byteLength":10536,
			"byteOffset":10536,
			"target":34962
		},
		{
			"buffer":0,
			"byteLength":7024,
			"byteOffset":21072,
			"target":34962
		},
		{
			"buffer":0,
			"byteLength":4668,
			"byteOffset":28096,
			"target":34963
		}
	],
	"samplers":[
		{
			"magFilter":9728,
			"minFilter":9984
		}
	],
	"buffers":[
		{
			"byteLength":32764,
			"uri":"Tree_2-f0cc22029ced5ee90ba18a82f3e609b9.bin"
		}
	]
}
