{
	"asset":{
		"generator":"Khronos glTF Blender I/O v4.0.44",
		"version":"2.0"
	},
	"scene":0,
	"scenes":[
		{
			"name":"Scene",
			"nodes":[
				0
			]
		}
	],
	"nodes":[
		{
			"mesh":0,
			"name":"Tree_3"
		}
	],
	"materials":[
		{
			"doubleSided":true,
			"name":"Atlas",
			"pbrMetallicRoughness":{
				"baseColorTexture":{
					"index":0
				},
				"metallicFactor":0,
				"roughnessFactor":0.5
			}
		}
	],
	"meshes":[
		{
			"name":"Cube.083",
			"primitives":[
				{
					"attributes":{
						"POSITION":0,
						"NORMAL":1,
						"TEXCOORD_0":2
					},
					"indices":3,
					"material":0
				}
			]
		}
	],
	"textures":[
		{
			"sampler":0,
			"source":0
		}
	],
	"images":[
		{
			"mimeType":"image/png",
			"name":"Atlas.png",
			"uri":"../../Assets/Cube%20World%20-%20Aug%202023/Environment/Blends/textures/Atlas.png"
		}
	],
	"accessors":[
		{
			"bufferView":0,
			"componentType":5126,
			"count":1303,
			"max":[
				4.589774131774902,
				7.705942153930664,
				2.3102712631225586
			],
			"min":[
				-4.5440778732299805,
				-0.0003096928121522069,
				-2.4362924098968506
			],
			"type":"VEC3"
		},
		{
			"bufferView":1,
			"componentType":5126,
			"count":1303,
			"type":"VEC3"
		},
		{
			"bufferView":2,
			"componentType":5126,
			"count":1303,
			"type":"VEC2"
		},
		{
			"bufferView":3,
			"componentType":5123,
			"count":3408,
			"type":"SCALAR"
		}
	],
	"bufferViews":[
		{
			"buffer":0,
			"byteLength":15636,
			"byteOffset":0,
			"target":34962
		},
		{
			"buffer":0,
			"byteLength":15636,
			"byteOffset":15636,
			"target":34962
		},
		{
			"buffer":0,
			"byteLength":10424,
			"byteOffset":31272,
			"target":34962
		},
		{
			"buffer":0,
			"byteLength":6816,
			"byteOffset":41696,
			"target":34963
		}
	],
	"samplers":[
		{
			"magFilter":9728,
			"minFilter":9984
		}
	],
	"buffers":[
		{
			"byteLength":48512,
			"uri":"Tree_3-b13948a60f6d1234ce1586985a53f021.bin"
		}
	]
}
