{
	"asset":{
		"generator":"Khronos glTF Blender I/O v4.0.44",
		"version":"2.0"
	},
	"scene":0,
	"scenes":[
		{
			"name":"Scene",
			"nodes":[
				0
			]
		}
	],
	"nodes":[
		{
			"mesh":0,
			"name":"Tree_1"
		}
	],
	"materials":[
		{
			"doubleSided":true,
			"name":"Atlas",
			"pbrMetallicRoughness":{
				"baseColorTexture":{
					"index":0
				},
				"metallicFactor":0,
				"roughnessFactor":0.5
			}
		}
	],
	"meshes":[
		{
			"name":"Cube.078",
			"primitives":[
				{
					"attributes":{
						"POSITION":0,
						"NORMAL":1,
						"TEXCOORD_0":2
					},
					"indices":3,
					"material":0
				}
			]
		}
	],
	"textures":[
		{
			"sampler":0,
			"source":0
		}
	],
	"images":[
		{
			"mimeType":"image/png",
			"name":"Atlas.png",
			"uri":"../../Assets/Cube%20World%20-%20Aug%202023/Environment/Blends/textures/Atlas.png"
		}
	],
	"accessors":[
		{
			"bufferView":0,
			"componentType":5126,
			"count":1238,
			"max":[
				3.5221400260925293,
				6.080024242401123,
				2.399876356124878
			],
			"min":[
				-2.592341661453247,
				-2.766447737556632e-09,
				-1.8374053239822388
			],
			"type":"VEC3"
		},
		{
			"bufferView":1,
			"componentType":5126,
			"count":1238,
			"type":"VEC3"
		},
		{
			"bufferView":2,
			"componentType":5126,
			"count":1238,
			"type":"VEC2"
		},
		{
			"bufferView":3,
			"componentType":5123,
			"count":3270,
			"type":"SCALAR"
		}
	],
	"bufferViews":[
		{
			"buffer":0,
			"byteLength":14856,
			"byteOffset":0,
			"target":34962
		},
		{
			"buffer":0,
			"byteLength":14856,
			"byteOffset":14856,
			"target":34962
		},
		{
			"buffer":0,
			"byteLength":9904,
			"byteOffset":29712,
			"target":34962
		},
		{
			"buffer":0,
			"byteLength":6540,
			"byteOffset":39616,
			"target":34963
		}
	],
	"samplers":[
		{
			"magFilter":9728,
			"minFilter":9984
		}
	],
	"buffers":[
		{
			"byteLength":46156,
			"uri":"Tree_1-870eef46f95e3c0abe75afbddc453afd.bin"
		}
	]
}
